HIERARCHY
ROOT Hips
{
 OFFSET 0.000000 0.000000 0.000000
 CHANNELS 6 Xposition Yposition Zposition Yrotation Xrotation Zrotation
 JOINT Chest
 {
  OFFSET 0.000000 9.585900 0.002600
  CHANNELS 3 Yrotation Xrotation Zrotation
  JOINT Chest2
  {
   OFFSET 0.000000 9.601200 -0.005300
   CHANNELS 3 Yrotation Xrotation Zrotation
   JOINT Chest3
   {
    OFFSET 0.000000 9.561800 0.000000
    CHANNELS 3 Yrotation Xrotation Zrotation
    JOINT Chest4
    {
     OFFSET 0.000000 9.552100 0.000000
     CHANNELS 3 Yrotation Xrotation Zrotation
     JOINT Neck
     {
      OFFSET 0.000000 14.453000 0.000000
      CHANNELS 3 Yrotation Xrotation Zrotation
      JOINT Head
      {
       OFFSET 0.000000 8.936500 -0.011300
       CHANNELS 3 Yrotation Xrotation Zrotation
       End Site
       {
        OFFSET 0.000000 17.073600 -0.006000
       }
      }
     }
     JOINT RightCollar
     {
      OFFSET -2.921100 9.558500 0.000000
      CHANNELS 3 Yrotation Xrotation Zrotation
      JOINT RightShoulder
      {
       OFFSET -13.519700 0.000000 0.000000
       CHANNELS 3 Yrotation Xrotation Zrotation
       JOINT RightElbow
       {
        OFFSET 0.000000 -29.696600 0.000000
        CHANNELS 3 Yrotation Xrotation Zrotation
        JOINT RightWrist
        {
         OFFSET 0.000000 -24.004700 0.000000
         CHANNELS 3 Yrotation Xrotation Zrotation
         End Site
         {
          OFFSET 0.000000 -17.728500 0.000000
         }
        }
       }
      }
     }
     JOINT LeftCollar
     {
      OFFSET 2.921100 9.558500 0.000000
      CHANNELS 3 Yrotation Xrotation Zrotation
      JOINT LeftShoulder
      {
       OFFSET 13.519700 0.000000 0.000000
       CHANNELS 3 Yrotation Xrotation Zrotation
       JOINT LeftElbow
       {
        OFFSET 0.000000 -29.696600 0.000000
        CHANNELS 3 Yrotation Xrotation Zrotation
        JOINT LeftWrist
        {
         OFFSET 0.000000 -24.004700 0.000000
         CHANNELS 3 Yrotation Xrotation Zrotation
         End Site
         {
          OFFSET 0.000000 -17.728500 0.000000
         }
        }
       }
      }
     }
    }
   }
  }
 }
 JOINT RightHip
 {
  OFFSET -7.771700 -0.012900 -0.001300
  CHANNELS 3 Yrotation Xrotation Zrotation
  JOINT RightKnee
  {
   OFFSET 0.000000 -40.869800 0.001200
   CHANNELS 3 Yrotation Xrotation Zrotation
   JOINT RightAnkle
   {
    OFFSET 0.000000 -39.717900 0.002100
    CHANNELS 3 Yrotation Xrotation Zrotation
    JOINT RightToe
    {
     OFFSET 0.000000 -4.965400 11.033500
     CHANNELS 3 Yrotation Xrotation Zrotation
     End Site
     {
      OFFSET 0.000000 -1.423100 5.872300
     }
    }
   }
  }
 }
 JOINT LeftHip
 {
  OFFSET 7.771700 -0.012900 -0.001300
  CHANNELS 3 Yrotation Xrotation Zrotation
  JOINT LeftKnee
  {
   OFFSET 0.000000 -40.869800 0.001200
   CHANNELS 3 Yrotation Xrotation Zrotation
   JOINT LeftAnkle
   {
    OFFSET 0.000000 -39.717900 0.002100
    CHANNELS 3 Yrotation Xrotation Zrotation
    JOINT LeftToe
    {
     OFFSET 0.000000 -4.965400 11.033500
     CHANNELS 3 Yrotation Xrotation Zrotation
     End Site
     {
      OFFSET 0.000000 -1.423100 5.872300
     }
    }
   }
  }
 }
}
MOTION
Frames: 12
Frame Time: 0.008333
-195.056891 57.590516 -62.759282 157.273319 -8.790090 0.395435 4.457195 5.976018 1.225873 0.181042 0.265521 0.016968 0.317490 0.465437 0.030175 3.950803 5.728596 0.553802 0.973525 19.606811 -0.953357 2.064209 0.636648 -2.032340 1.307733 7.744878 0.746303 -5.358149 -7.699531 -5.687552 34.624167 -85.384266 -17.568462 -1.361302 2.205582 -20.418997 -4.318778 8.368688 -2.137221 19.852718 -4.386011 -0.073707 69.669589 -81.676075 -94.802120 -2.796929 7.961751 11.496742 -14.481389 -63.097004 8.942364 -30.448601 72.270358 -30.816127 -3.265251 -6.293356 -2.032097 -0.212859 0.668722 -0.093011 0.948280 -65.501795 18.170097 41.200194 66.853095 34.219153 -17.025740 -10.844126 3.573183 -0.199468 -0.866569 -0.102968
-195.058898 57.589362 -62.758314 157.268929 -8.790168 0.394955 4.466343 5.977098 1.223046 0.181279 0.265627 0.016965 0.322787 0.467694 0.027344 3.945634 5.726040 0.559414 0.975676 19.612883 -0.956986 2.064097 0.636213 -2.029437 1.304214 7.745474 0.746893 -5.358319 -7.696515 -5.691455 34.593990 -85.388396 -17.538662 -1.360901 2.206832 -20.415929 -4.318307 8.373916 -2.134764 19.852285 -4.389503 -0.076116 69.663534 -81.676321 -94.788931 -2.798016 7.963283 11.497030 -14.479941 -63.098754 8.944868 -30.434560 72.269294 -30.802496 -3.267571 -6.287389 -2.032654 -0.214024 0.667828 -0.093939 0.959344 -65.504001 18.164577 41.205262 66.855117 34.227561 -17.024304 -10.850795 3.578674 -0.199762 -0.857754 -0.104796
-195.060964 57.588461 -62.757279 157.268814 -8.789374 0.392176 4.478348 5.978995 1.219212 0.176541 0.264890 0.020943 0.317732 0.465862 0.030147 3.947269 5.730234 0.554251 0.981715 19.615407 -0.955773 2.062606 0.636802 -2.025729 1.306062 7.746923 0.743944 -5.363287 -7.700134 -5.682928 34.590754 -85.389953 -17.535989 -1.364422 2.212234 -20.402262 -4.318515 8.371919 -2.127513 19.864254 -4.383542 -0.077272 69.670411 -81.677067 -94.799729 -2.798592 7.961593 11.493936 -14.485105 -63.101227 8.951541 -30.429929 72.267708 -30.797877 -3.273871 -6.280342 -2.033378 -0.216323 0.664922 -0.094204 0.960676 -65.506790 18.163602 41.208792 66.854784 34.235112 -17.020729 -10.856819 3.580669 -0.191691 -0.848875 -0.100572
-195.062904 57.587884 -62.756405 157.271353 -8.789476 0.387317 4.481340 5.978135 1.219963 0.180022 0.266182 0.018468 0.313559 0.466584 0.033543 3.947915 5.730529 0.552197 0.983602 19.616925 -0.952362 2.069952 0.646944 -2.026992 1.308800 7.755082 0.737190 -5.369606 -7.700618 -5.673546 34.598124 -85.395179 -17.539973 -1.374114 2.224358 -20.389465 -4.313941 8.380850 -2.121868 19.865051 -4.390119 -0.079945 69.666606 -81.677288 -94.797755 -2.797246 7.962470 11.490839 -14.491787 -63.100593 8.954141 -30.418371 72.266671 -30.783986 -3.270641 -6.277719 -2.031680 -0.225780 0.665554 -0.097705 0.953661 -65.507758 18.167989 41.208660 66.853046 34.238243 -17.012110 -10.862793 3.579810 -0.182152 -0.842432 -0.095580
-195.064702 57.587679 -62.756038 157.275478 -8.792456 0.381588 4.480288 5.979948 1.223793 0.182849 0.265729 0.016681 0.318832 0.467142 0.029478 3.949922 5.734845 0.552325 0.980785 19.616685 -0.946057 2.079384 0.659208 -2.026453 1.303099 7.758382 0.738974 -5.360879 -7.682965 -5.681909 34.549825 -85.416628 -17.500958 -1.375106 2.222170 -20.393004 -4.308436 8.387626 -2.115382 19.862068 -4.392331 -0.078207 69.712306 -81.678883 -94.851923 -2.796037 7.964245 11.487749 -14.501632 -63.096545 8.961630 -30.411157 72.265884 -30.778073 -3.272435 -6.277186 -2.029815 -0.227516 0.666988 -0.098168 0.940978 -65.505129 18.177015 41.207843 66.852074 34.238634 -17.005116 -10.868623 3.579680 -0.176352 -0.838046 -0.091937
-195.066881 57.587678 -62.755433 157.283927 -8.792891 0.375803 4.474426 5.978945 1.228457 0.181879 0.266247 0.016695 0.319563 0.468662 0.027498 3.954650 5.732423 0.553066 0.987063 19.629793 -0.948394 2.081365 0.666797 -2.024370 1.300165 7.766215 0.734634 -5.360682 -7.680787 -5.680080 34.477223 -85.409881 -17.412689 -1.378108 2.209780 -20.410924 -4.303501 8.393388 -2.115491 19.862016 -4.393542 -0.078248 69.725917 -81.681120 -94.869339 -2.795925 7.967349 11.484049 -14.514347 -63.091782 8.966931 -30.388413 72.264575 -30.756133 -3.272179 -6.286033 -2.032473 -0.225835 0.677009 -0.095907 0.926994 -65.505325 18.183655 41.210420 66.849830 34.237768 -16.998079 -10.870429 3.586630 -0.179914 -0.837159 -0.092454
-195.068306 57.587935 -62.754748 157.291179 -8.794188 0.364780 4.470753 5.983690 1.232921 0.180173 0.263278 0.020914 0.320831 0.470138 0.025620 3.958603 5.734713 0.550059 0.991137 19.633954 -0.945274 2.084489 0.675878 -2.022694 1.296552 7.762858 0.739130 -5.360598 -7.680209 -5.678823 34.471800 -85.409235 -17.405251 -1.380816 2.218689 -20.401592 -4.297594 8.392522 -2.112082 19.866884 -4.386073 -0.074679 69.788065 -81.681277 -94.935989 -2.799461 7.969748 11.473683 -14.530203 -63.085808 8.983335 -30.384368 72.260023 -30.749376 -3.291759 -6.289938 -2.033222 -0.223687 0.681692 -0.095366 0.910632 -65.505176 18.203472 41.231141 66.841565 34.253802 -17.026544 -10.870681 3.589665 -0.173914 -0.836147 -0.087056
-195.071792 57.588198 -62.753449 157.296886 -8.786703 0.362688 4.467421 5.978386 1.231086 0.179086 0.264033 0.018966 0.322705 0.470764 0.027075 3.961577 5.734858 0.550236 0.990512 19.633646 -0.943668 2.094667 0.687988 -2.025226 1.296249 7.767518 0.737782 -5.356555 -7.679179 -5.678795 34.460265 -85.411641 -17.395641 -1.384360 2.214547 -20.395813 -4.294518 8.392531 -2.111769 19.864763 -4.385660 -0.071329 69.795661 -81.678974 -94.939390 -2.805888 7.972961 11.468068 -14.537493 -63.092639 8.985747 -30.382171 72.256766 -30.747460 -3.286309 -6.291138 -2.032850 -0.221434 0.683632 -0.095910 0.914563 -65.512618 18.199468 41.224127 66.837403 34.244602 -17.046267 -10.866229 3.592147 -0.166140 -0.836615 -0.082508
-195.077201 57.588621 -62.752817 157.306575 -8.777847 0.370845 4.457792 5.971032 1.220057 0.182472 0.270751 0.015531 0.320260 0.466390 0.029480 3.965112 5.737330 0.551569 0.989809 19.631681 -0.944429 2.103324 0.697343 -2.027373 1.290777 7.769375 0.737814 -5.345558 -7.678141 -5.680645 34.435864 -85.405807 -17.356894 -1.387418 2.202580 -20.405878 -4.295913 8.388815 -2.111679 19.868372 -4.379483 -0.071864 69.828614 -81.680825 -94.975735 -2.817532 7.979192 11.455713 -14.528672 -63.106240 8.958768 -30.374084 72.258870 -30.738428 -3.271923 -6.289738 -2.026010 -0.236280 0.682973 -0.102305 0.932243 -65.522460 18.172787 41.225715 66.832924 34.242819 -17.069977 -10.851237 3.593639 -0.169482 -0.847595 -0.079097
-195.081364 57.589319 -62.752546 157.313101 -8.773118 0.372409 4.452266 5.971004 1.215151 0.180719 0.272961 0.016722 0.321325 0.460762 0.029812 3.967753 5.744458 0.554482 0.993818 19.628661 -0.949652 2.110645 0.700498 -2.031627 1.287081 7.766346 0.733692 -5.329963 -7.668491 -5.686239 34.427470 -85.413887 -17.355467 -1.389158 2.201451 -20.397466 -4.295723 8.382394 -2.113649 19.866800 -4.380191 -0.071663 69.795438 -81.687423 -94.932335 -2.813834 7.972263 11.446466 -14.533436 -63.113056 8.953067 -30.368963 72.260517 -30.734490 -3.267347 -6.289165 -2.021991 -0.246694 0.681457 -0.106010 0.938667 -65.526896 18.161708 41.225726 66.828027 34.240153 -17.082365 -10.841680 3.593201 -0.194275 -0.856127 -0.080441
-195.083794 57.590348 -62.753066 157.309329 -8.775904 0.367283 4.454763 5.980818 1.220121 0.180463 0.269911 0.018168 0.322840 0.464821 0.028795 3.969025 5.740625 0.556064 1.001788 19.633343 -0.952667 2.117449 0.696995 -2.039588 1.289417 7.768486 0.727086 -5.324989 -7.667236 -5.682506 34.445034 -85.417494 -17.378404 -1.397333 2.203376 -20.388661 -4.283747 8.384140 -2.118542 19.870844 -4.383456 -0.072384 69.765248 -81.696210 -94.906922 -2.817251 7.969530 11.429983 -14.541898 -63.110698 8.963327 -30.363555 72.262289 -30.729096 -3.270372 -6.284356 -2.019566 -0.247645 0.675534 -0.109571 0.938488 -65.523548 18.169419 41.220783 66.826408 34.234695 -17.072192 -10.836477 3.588128 -0.176202 -0.858629 -0.072721
-195.086041 57.591514 -62.753803 157.309374 -8.779372 0.361218 4.450797 5.989198 1.227315 0.182908 0.267873 0.017293 0.323130 0.464677 0.030431 3.969247 5.741194 0.556002 1.006555 19.634654 -0.956081 2.141116 0.692721 -2.065545 1.292795 7.772697 0.719276 -5.318322 -7.667494 -5.677388 34.363404 -85.417175 -17.295372 -1.399133 2.200704 -20.356253 -4.276320 8.385582 -2.118918 19.880844 -4.383679 -0.074605 69.702065 -81.700333 -94.841972 -2.819112 7.965668 11.425682 -14.551768 -63.107090 8.972256 -30.374808 72.260773 -30.738024 -3.267682 -6.278006 -2.021976 -0.245224 0.669103 -0.108442 0.934697 -65.516130 18.180031 41.220819 66.820841 34.227261 -17.065822 -10.838069 3.585891 -0.153289 -0.852859 -0.062828
